<svg width="400" height="260" viewBox="0 0 400 260" fill="none" xmlns="http://www.w3.org/2000/svg">
  <rect width="400" height="260" rx="28" fill="url(#paint0_linear_1_1)" />
  <g filter="url(#filter0_f_1_1)">
    <circle cx="140" cy="80" r="64" fill="url(#paint1_radial_1_1)" fill-opacity="0.65" />
  </g>
  <g filter="url(#filter1_f_1_1)">
    <circle cx="286" cy="150" r="82" fill="url(#paint2_radial_1_1)" fill-opacity="0.45" />
  </g>
  <rect x="72" y="72" width="256" height="116" rx="18" fill="#FFFFFF" fill-opacity="0.82" />
  <rect x="96" y="96" width="120" height="12" rx="6" fill="#1F2A6B" fill-opacity="0.4" />
  <rect x="96" y="118" width="88" height="12" rx="6" fill="#1F2A6B" fill-opacity="0.22" />
  <rect x="96" y="152" width="72" height="12" rx="6" fill="#1F2A6B" fill-opacity="0.14" />
  <rect x="232" y="96" width="72" height="72" rx="16" fill="url(#paint3_linear_1_1)" />
  <path d="M260 140C270.493 140 279 131.493 279 121C279 110.507 270.493 102 260 102C249.507 102 241 110.507 241 121C241 131.493 249.507 140 260 140Z" stroke="white" stroke-width="7" stroke-linecap="round" stroke-linejoin="round"/>
  <path d="M260 110V132" stroke="white" stroke-width="7" stroke-linecap="round" stroke-linejoin="round"/>
  <path d="M252 121H268" stroke="white" stroke-width="7" stroke-linecap="round" stroke-linejoin="round"/>
  <defs>
    <filter id="filter0_f_1_1" x="24" y="-36" width="232" height="232" filterUnits="userSpaceOnUse" color-interpolation-filters="sRGB">
      <feFlood flood-opacity="0" result="BackgroundImageFix" />
      <feBlend mode="normal" in="SourceGraphic" in2="BackgroundImageFix" result="shape" />
      <feGaussianBlur stdDeviation="26" result="effect1_foregroundBlur_1_1" />
    </filter>
    <filter id="filter1_f_1_1" x="152" y="16" width="268" height="268" filterUnits="userSpaceOnUse" color-interpolation-filters="sRGB">
      <feFlood flood-opacity="0" result="BackgroundImageFix" />
      <feBlend mode="normal" in="SourceGraphic" in2="BackgroundImageFix" result="shape" />
      <feGaussianBlur stdDeviation="24" result="effect1_foregroundBlur_1_1" />
    </filter>
    <linearGradient id="paint0_linear_1_1" x1="36" y1="20" x2="364" y2="240" gradientUnits="userSpaceOnUse">
      <stop stop-color="#EEF2FF" />
      <stop offset="1" stop-color="#CBD4FF" />
    </linearGradient>
    <radialGradient id="paint1_radial_1_1" cx="0" cy="0" r="1" gradientUnits="userSpaceOnUse" gradientTransform="translate(140 80) rotate(90) scale(64)">
      <stop stop-color="#8DA2FB" />
      <stop offset="1" stop-color="#8DA2FB" stop-opacity="0" />
    </radialGradient>
    <radialGradient id="paint2_radial_1_1" cx="0" cy="0" r="1" gradientUnits="userSpaceOnUse" gradientTransform="translate(286 150) rotate(90) scale(82)">
      <stop stop-color="#C4B5FD" />
      <stop offset="1" stop-color="#C4B5FD" stop-opacity="0" />
    </radialGradient>
    <linearGradient id="paint3_linear_1_1" x1="232" y1="96" x2="304" y2="168" gradientUnits="userSpaceOnUse">
      <stop stop-color="#2A33A4" />
      <stop offset="1" stop-color="#4853DA" />
    </linearGradient>
  </defs>
</svg>


