<svg width="400" height="260" viewBox="0 0 400 260" fill="none" xmlns="http://www.w3.org/2000/svg">
  <rect width="400" height="260" rx="28" fill="url(#paint0_linear_3_1)" />
  <g filter="url(#filter0_f_3_1)">
    <ellipse cx="308" cy="190" rx="82" ry="60" fill="url(#paint1_radial_3_1)" fill-opacity="0.55" />
  </g>
  <g filter="url(#filter1_f_3_1)">
    <ellipse cx="112" cy="84" rx="84" ry="72" fill="url(#paint2_radial_3_1)" fill-opacity="0.42" />
  </g>
  <rect x="80" y="70" width="240" height="128" rx="24" fill="#FFFFFF" fill-opacity="0.76" />
  <rect x="104" y="94" width="132" height="16" rx="8" fill="#1F2A6B" fill-opacity="0.2" />
  <rect x="104" y="126" width="96" height="12" rx="6" fill="#1F2A6B" fill-opacity="0.16" />
  <rect x="104" y="148" width="76" height="12" rx="6" fill="#1F2A6B" fill-opacity="0.16" />
  <rect x="248" y="94" width="56" height="84" rx="16" fill="url(#paint3_linear_3_1)" />
  <path d="M276 115C282.075 115 287 110.075 287 104C287 97.9249 282.075 93 276 93C269.925 93 265 97.9249 265 104C265 110.075 269.925 115 276 115Z" stroke="white" stroke-width="6" stroke-linecap="round" stroke-linejoin="round"/>
  <path d="M262 146C262 136.059 269.059 129 279 129C288.941 129 296 136.059 296 146" stroke="white" stroke-width="6" stroke-linecap="round" stroke-linejoin="round"/>
  <defs>
    <filter id="filter0_f_3_1" x="190" y="78" width="236" height="224" filterUnits="userSpaceOnUse" color-interpolation-filters="sRGB">
      <feFlood flood-opacity="0" result="BackgroundImageFix" />
      <feBlend mode="normal" in="SourceGraphic" in2="BackgroundImageFix" result="shape" />
      <feGaussianBlur stdDeviation="18" result="effect1_foregroundBlur_3_1" />
    </filter>
    <filter id="filter1_f_3_1" x="-8" y="-36" width="240" height="240" filterUnits="userSpaceOnUse" color-interpolation-filters="sRGB">
      <feFlood flood-opacity="0" result="BackgroundImageFix" />
      <feBlend mode="normal" in="SourceGraphic" in2="BackgroundImageFix" result="shape" />
      <feGaussianBlur stdDeviation="18" result="effect1_foregroundBlur_3_1" />
    </filter>
    <linearGradient id="paint0_linear_3_1" x1="36" y1="32" x2="368" y2="228" gradientUnits="userSpaceOnUse">
      <stop stop-color="#FFE5F3" />
      <stop offset="1" stop-color="#E0E7FF" />
    </linearGradient>
    <radialGradient id="paint1_radial_3_1" cx="0" cy="0" r="1" gradientUnits="userSpaceOnUse" gradientTransform="translate(308 190) rotate(90) scale(60 82)">
      <stop stop-color="#F472B6" />
      <stop offset="1" stop-color="#F472B6" stop-opacity="0" />
    </radialGradient>
    <radialGradient id="paint2_radial_3_1" cx="0" cy="0" r="1" gradientUnits="userSpaceOnUse" gradientTransform="translate(112 84) rotate(90) scale(72 84)">
      <stop stop-color="#818CF8" />
      <stop offset="1" stop-color="#818CF8" stop-opacity="0" />
    </radialGradient>
    <linearGradient id="paint3_linear_3_1" x1="248" y1="94" x2="304" y2="178" gradientUnits="userSpaceOnUse">
      <stop stop-color="#DB2777" />
      <stop offset="1" stop-color="#F472B6" />
    </linearGradient>
  </defs>
</svg>


